<svg width="1647" height="358" viewBox="0 0 1647 358" fill="none" xmlns="http://www.w3.org/2000/svg">
<path d="M422.984 201.61C422.984 177.018 430.099 157.264 444.351 142.327C458.581 127.39 476.965 119.921 499.481 119.921C516.627 119.921 530.57 124.098 541.353 132.472C544.756 135.123 549.771 132.605 549.948 128.296V128.229C550.059 125.313 552.445 123.037 555.362 123.037H586.429C589.412 123.037 591.842 125.467 591.842 128.45V273.047C591.842 276.03 589.412 278.46 586.429 278.46H554.831C552.003 278.46 549.639 276.273 549.418 273.445L549.329 272.274C548.998 267.943 543.894 265.578 540.557 268.363C529.995 277.157 515.964 281.554 498.442 281.554C477.296 281.554 459.443 274.439 444.859 260.187C430.276 245.957 422.984 226.424 422.984 201.61ZM547.054 200.572C547.054 187.248 543.54 176.841 536.536 169.394C529.531 161.926 520.273 158.192 508.805 158.192C497.779 158.192 488.632 162.036 481.406 169.748C474.181 177.459 470.557 187.845 470.557 200.948C470.557 214.271 474.004 224.612 480.898 231.97C487.792 239.328 496.874 242.996 508.12 242.996C519.61 242.996 528.979 239.373 536.204 232.147C543.43 224.878 547.054 214.36 547.054 200.572Z" fill="#272B64"/>
<path d="M625.274 200.923C625.274 176.794 632.279 157.261 646.288 142.346C660.297 127.409 678.68 119.941 701.417 119.941C717.039 119.941 729.7 123.079 739.423 129.376C743.09 131.762 747.929 129.332 747.929 124.935V55.3764C747.929 52.3935 750.36 49.9629 753.343 49.9629H788.343C791.326 49.9629 793.757 52.3935 793.757 55.3764V273.022C793.757 276.005 791.326 278.436 788.343 278.436H757.166C754.293 278.436 751.929 276.204 751.752 273.332L751.73 273.133C751.465 268.78 746.405 266.438 743.024 269.178C732.86 277.419 718.962 281.551 701.373 281.551C679.542 281.551 661.401 274.193 646.928 259.5C632.522 244.806 625.274 225.273 625.274 200.923ZM750.382 199.884C750.382 187.246 746.714 177.148 739.356 169.547C731.998 161.968 722.696 158.167 711.449 158.167C699.959 158.167 690.657 162.189 683.542 170.232C676.427 178.275 672.869 188.372 672.869 200.569C672.869 212.987 676.537 223.152 683.895 231.062C691.253 238.994 700.445 242.95 711.471 242.95C722.718 242.95 732.02 238.994 739.378 231.062C746.714 223.152 750.382 212.744 750.382 199.884Z" fill="#272B64"/>
<path d="M828.269 269.202V245.383C828.269 241.383 832.423 238.842 836.047 240.544C847.25 245.825 858.894 248.476 871.003 248.476C884.548 248.476 891.331 243.416 891.331 233.318C891.331 228.501 889.541 224.701 885.984 221.939C882.426 219.177 876.394 216.304 867.887 213.321C860.529 210.338 855.138 207.974 851.691 206.251C848.244 204.527 844.51 201.942 840.488 198.495C836.467 195.048 833.528 190.805 831.694 185.745C829.86 180.685 828.821 174.366 828.6 166.787C828.6 151.386 833.55 139.742 843.427 131.809C853.304 123.877 867.313 119.921 885.476 119.921C899.551 119.921 910.798 121.689 919.238 125.202C921.315 126.064 922.707 128.031 922.707 130.262V154.104C922.707 158.015 918.686 160.578 915.084 159.031C905.296 154.789 896.457 152.668 888.591 152.668C877.101 152.668 871.356 156.8 871.356 165.086C871.356 168.997 872.969 172.09 876.173 174.388C879.399 176.686 885.012 179.205 893.055 181.967C906.843 187.027 916.896 192.639 923.216 198.848C929.535 205.057 933.026 215.398 933.733 229.871C933.733 246.421 928.386 259.171 917.714 268.119C907.041 277.09 892.502 281.554 874.118 281.554C856.508 281.554 842.234 279.057 831.318 274.085C829.418 273.224 828.269 271.279 828.269 269.202Z" fill="#FF6000"/>
<path d="M963.367 341.279V128.45C963.367 125.467 965.797 123.037 968.78 123.037H999.958C1002.83 123.037 1005.19 125.269 1005.37 128.119L1005.39 128.428C1005.66 132.759 1010.63 134.991 1014.1 132.339C1024.88 124.053 1038.87 119.921 1056.08 119.921C1078.84 119.921 1097.14 127.456 1111.06 142.504C1124.95 157.551 1131.92 176.797 1131.92 200.218C1131.92 224.347 1124.73 243.924 1110.37 258.972C1096.01 274.019 1078.02 281.554 1056.44 281.554C1040.92 281.554 1028.04 278.041 1017.79 270.992C1014.14 268.495 1009.22 270.948 1009.22 275.367V341.279C1009.22 344.262 1006.79 346.693 1003.8 346.693H968.802C965.797 346.693 963.367 344.262 963.367 341.279ZM1084.67 199.887C1084.67 187.491 1081.12 177.437 1074 169.726C1066.89 162.036 1057.56 158.17 1046.09 158.17C1034.38 158.17 1024.95 162.257 1017.83 170.411C1010.72 178.564 1007.14 188.618 1007.14 200.572C1007.14 212.99 1010.76 223.154 1017.99 231.064C1025.21 238.997 1034.69 242.952 1046.43 242.952C1057.92 242.952 1067.15 238.931 1074.16 230.888C1081.16 222.867 1084.67 212.526 1084.67 199.887Z" fill="#FF6000"/>
<path d="M1154.63 201.61C1154.63 177.018 1161.74 157.264 1176 142.327C1190.23 127.39 1208.61 119.921 1231.13 119.921C1248.27 119.921 1262.21 124.098 1273 132.472C1276.4 135.123 1281.42 132.605 1281.59 128.296V128.229C1281.7 125.313 1284.09 123.037 1287.01 123.037H1318.07C1321.06 123.037 1323.49 125.467 1323.49 128.45V273.047C1323.49 276.03 1321.06 278.46 1318.07 278.46H1286.48C1283.65 278.46 1281.28 276.273 1281.06 273.445L1280.97 272.274C1280.64 267.943 1275.54 265.578 1272.2 268.363C1261.64 277.157 1247.61 281.554 1230.09 281.554C1208.94 281.554 1191.09 274.439 1176.5 260.187C1161.92 245.957 1154.63 226.424 1154.63 201.61ZM1278.7 200.572C1278.7 187.248 1275.19 176.841 1268.18 169.394C1261.18 161.926 1251.92 158.192 1240.45 158.192C1229.42 158.192 1220.28 162.036 1213.05 169.748C1205.83 177.459 1202.2 187.845 1202.2 200.948C1202.2 214.271 1205.65 224.612 1212.54 231.97C1219.44 239.328 1228.52 242.996 1239.77 242.996C1251.26 242.996 1260.62 239.373 1267.85 232.147C1275.07 224.878 1278.7 214.36 1278.7 200.572Z" fill="#FF6000"/>
<path d="M1367.61 273.047V128.45C1367.61 125.467 1370.04 123.037 1373.02 123.037H1404.18C1407.05 123.037 1409.42 125.291 1409.59 128.141C1409.86 132.671 1415.18 134.858 1418.58 131.853C1427.62 123.899 1439.36 119.921 1453.76 119.921C1457.21 119.921 1459.15 120.032 1459.62 120.253V153.198C1459.62 156.579 1456.57 159.142 1453.23 158.501C1450.85 158.037 1447.93 157.816 1444.44 157.816C1432.48 157.816 1424.33 161.661 1419.98 169.372C1415.6 177.062 1413.44 189.656 1413.44 207.112V273.025C1413.44 276.008 1411.01 278.438 1408.02 278.438H1373.02C1370.02 278.46 1367.61 276.03 1367.61 273.047Z" fill="#FF6000"/>
<path d="M1474.09 201.611C1474.09 177.725 1482.07 158.126 1498.05 142.857C1514.02 127.589 1535.1 119.944 1561.29 119.944C1586.78 119.944 1607.36 127.059 1622.98 141.311C1638.6 155.563 1646.4 174.852 1646.4 199.202C1646.4 223.795 1638.36 243.66 1622.27 258.817C1606.18 273.975 1585.28 281.554 1559.54 281.554C1533.8 281.554 1513.14 274.152 1497.52 259.326C1481.89 244.521 1474.09 225.276 1474.09 201.611ZM1599.2 199.887C1599.2 187.491 1595.69 177.438 1588.68 169.726C1581.68 162.037 1572.31 158.17 1560.6 158.17C1548.65 158.17 1539.12 162.258 1531.99 170.411C1524.87 178.565 1521.31 188.618 1521.31 200.572C1521.31 212.99 1524.94 223.154 1532.16 231.065C1539.41 238.997 1548.89 242.952 1560.6 242.952C1572.31 242.952 1581.68 238.931 1588.68 230.888C1595.69 222.867 1599.2 212.526 1599.2 199.887Z" fill="#FF6000"/>
<path d="M179 358C277.859 358 358 277.859 358 179C358 80.141 277.859 0 179 0C80.141 0 0 80.141 0 179C0 277.859 80.141 358 179 358Z" fill="#FF6000"/>
<mask id="mask0_89_678" style="mask-type:alpha" maskUnits="userSpaceOnUse" x="0" y="0" width="358" height="358">
<path d="M179 358C277.859 358 358 277.859 358 179C358 80.141 277.859 0 179 0C80.141 0 0 80.141 0 179C0 277.859 80.141 358 179 358Z" fill="#FF6000"/>
</mask>
<g mask="url(#mask0_89_678)">
<path d="M265.195 251.43V252.093C265.195 254.082 265.129 256.114 265.018 258.059C264.886 256.092 264.841 254.082 264.841 252.093V251.408C264.841 249.618 264.908 247.851 265.018 246.105C265.084 246.967 265.129 247.873 265.129 248.757C265.173 249.287 265.173 249.861 265.173 250.414V250.524C265.195 250.789 265.195 251.121 265.195 251.43Z" stroke="#272B64" stroke-width="8.83841" stroke-miterlimit="10"/>
<path d="M324.39 142.806C318.91 138.254 313.187 134.012 307.177 130.211C313.629 133.415 319.418 137.702 324.39 142.806Z" stroke="#272B64" stroke-width="8.83841" stroke-miterlimit="10"/>
<path d="M265.194 251.43C265.083 251.43 264.951 251.386 264.862 251.386C264.862 249.596 264.929 247.828 265.039 246.083C265.105 246.944 265.15 247.85 265.15 248.734C265.194 249.264 265.194 249.839 265.194 250.391V250.502C265.194 250.789 265.194 251.12 265.194 251.43Z" stroke="#272B64" stroke-width="8.83841" stroke-miterlimit="10"/>
<path d="M324.39 142.806C318.91 138.254 313.187 134.012 307.177 130.211C313.629 133.415 319.418 137.702 324.39 142.806Z" stroke="#272B64" stroke-width="8.83841" stroke-miterlimit="10"/>
<path d="M331.792 151.888C303.951 163.423 281.966 186.226 271.537 214.597H271.117C270.454 214.597 269.791 214.597 269.128 214.553C268.465 214.553 267.824 214.509 267.162 214.486C266.764 214.464 266.322 214.42 265.902 214.398C265.261 214.332 264.598 214.288 263.98 214.221C263.295 214.155 262.632 214.045 261.925 213.956C261.151 213.868 260.422 213.735 259.693 213.603C259.163 213.492 258.633 213.404 258.102 213.293C257.925 213.249 257.704 213.183 257.55 213.161C257.307 213.117 257.086 213.05 256.887 213.028C256.357 212.918 255.826 212.807 255.318 212.675C254.589 212.476 253.86 212.299 253.175 212.078C252.645 211.945 252.114 211.791 251.584 211.614C250.678 211.327 249.75 211.017 248.866 210.686C248.247 210.465 247.585 210.2 246.922 209.913C246.215 209.647 245.552 209.36 244.889 209.051C244.358 208.852 243.828 208.587 243.32 208.366C242.525 208.012 241.729 207.593 240.956 207.173C240.359 206.885 239.718 206.532 239.166 206.2C239.122 206.178 239.055 206.134 239.033 206.112C237.774 205.405 236.514 204.654 235.321 203.814C234.658 203.372 233.951 202.908 233.333 202.422C232.67 201.958 232.007 201.494 231.388 200.964C230.814 200.522 230.261 200.102 229.687 199.638C229.156 199.196 228.626 198.732 228.118 198.268C227.698 197.914 227.256 197.495 226.858 197.097C226.394 196.655 225.886 196.235 225.466 195.771C225.002 195.351 224.538 194.843 224.119 194.379C223.566 193.805 223.036 193.208 222.528 192.656C221.997 192.037 221.467 191.396 220.937 190.8C220.539 190.313 220.185 189.805 219.788 189.341C219.39 188.811 218.948 188.236 218.595 187.684C218.153 187.109 217.755 186.579 217.401 185.983C217.136 185.629 216.871 185.209 216.628 184.812C216.584 184.745 216.562 184.701 216.517 184.679C216.053 183.906 215.567 183.176 215.125 182.381C214.661 181.585 214.197 180.746 213.778 179.928C213.866 178.978 213.999 178.05 214.175 177.078C214.22 176.835 214.242 176.614 214.308 176.371C214.418 175.708 214.551 175.045 214.684 174.404C214.75 174.139 214.816 173.83 214.882 173.565C214.882 173.52 214.882 173.52 214.927 173.498C215.037 172.88 215.192 172.305 215.369 171.664C215.413 171.598 215.413 171.51 215.435 171.399C215.479 171.2 215.545 170.957 215.612 170.758C215.766 170.14 215.943 169.499 216.164 168.88C216.23 168.659 216.274 168.438 216.341 168.217C216.518 167.798 216.628 167.356 216.805 166.936C217.004 166.317 217.225 165.676 217.468 165.08C217.711 164.461 217.932 163.842 218.175 163.246C218.462 162.517 218.771 161.854 219.103 161.169C219.103 161.125 219.147 161.058 219.169 161.036C219.169 160.992 219.169 160.97 219.213 160.97C219.456 160.417 219.721 159.843 220.009 159.313C220.119 159.092 220.208 158.871 220.318 158.65C220.583 158.075 220.915 157.479 221.246 156.926C221.975 155.556 222.726 154.275 223.566 152.971C223.831 152.573 224.052 152.198 224.339 151.8C224.384 151.734 224.45 151.623 224.516 151.579C224.715 151.292 224.87 151.005 225.069 150.739C225.4 150.275 225.732 149.811 226.063 149.347C226.129 149.281 226.196 149.149 226.262 149.082C226.306 149.038 226.328 149.016 226.328 148.972C226.748 148.441 227.19 147.889 227.588 147.337C228.03 146.762 228.494 146.21 229.002 145.635C229.267 145.348 229.51 145.061 229.775 144.773C229.775 144.729 229.819 144.707 229.841 144.685C230.084 144.442 230.305 144.221 230.526 143.956C230.902 143.558 231.256 143.116 231.697 142.719C231.963 142.453 232.228 142.166 232.449 141.923L232.625 141.746C232.869 141.525 233.134 141.26 233.399 141.017C233.642 140.796 233.907 140.553 234.15 140.288C234.216 140.222 234.327 140.155 234.393 140.089C234.813 139.691 235.299 139.294 235.741 138.896C235.874 138.763 236.006 138.631 236.139 138.52C237.067 137.725 238.039 136.952 238.989 136.244C239.564 135.803 240.116 135.383 240.691 134.985C240.735 134.985 240.757 134.941 240.801 134.919C241.265 134.631 241.729 134.278 242.193 133.946C242.657 133.659 243.143 133.328 243.607 133.018C244.071 132.753 244.535 132.444 244.955 132.179C245.485 131.869 246.016 131.538 246.546 131.251C247.054 130.986 247.585 130.676 248.071 130.455C248.91 129.991 249.772 129.549 250.656 129.13C251.363 128.842 252.048 128.533 252.755 128.201C253.042 128.113 253.352 127.981 253.661 127.848C253.948 127.737 254.258 127.605 254.567 127.494C254.788 127.428 255.031 127.318 255.252 127.229C255.848 127.03 256.467 126.787 257.064 126.588C257.439 126.434 257.793 126.323 258.169 126.235C258.412 126.124 258.677 126.058 258.898 125.992C259.494 125.793 260.466 125.528 261.063 125.373C261.527 125.241 261.991 125.108 262.455 125.02C263.693 124.732 264.908 124.423 266.167 124.18C266.83 124.07 267.493 123.959 268.156 123.849C268.421 123.804 268.73 123.738 268.996 123.716C269.526 123.65 269.99 123.583 270.476 123.539C270.741 123.495 271.006 123.473 271.271 123.429C271.802 123.362 272.288 123.34 272.818 123.274H273.017C273.194 123.274 273.348 123.23 273.525 123.23C274.254 123.164 274.939 123.141 275.669 123.141C276.508 123.097 277.304 123.075 278.121 123.075C288.639 123.075 298.538 125.572 307.288 130.035C313.298 133.858 319.021 138.1 324.501 142.63C327.108 145.613 329.605 148.64 331.792 151.888Z" fill="#D9DBF7" stroke="#272B64" stroke-width="8.83841" stroke-miterlimit="10"/>
<path d="M171.353 169.473C179.617 169.473 186.312 162.778 186.312 154.514C186.312 146.25 179.617 139.555 171.353 139.555C163.067 139.555 156.372 146.25 156.372 154.514C156.372 162.778 163.067 169.473 171.353 169.473ZM47.3502 261.392C53.6918 315.262 99.4969 357.024 155.002 357.024C163.752 357.024 173.43 356.493 182.843 355.499C126.741 360.471 66.2202 343.391 47.3502 261.392Z" stroke="#272B64" stroke-width="8.83841" stroke-miterlimit="10"/>
<path d="M226.175 103.209C222.021 102.9 217.845 102.745 213.647 102.745C159.843 102.745 111.828 127.272 80.0763 165.763C63.7032 185.583 52.7877 209.381 48.1476 234.636C47.2195 239.652 46.6008 244.557 46.6008 248.601C46.6008 252.954 46.866 257.196 47.3521 261.395C66.2221 343.393 126.743 360.473 182.845 355.502C183.243 355.457 183.596 355.435 184.016 355.391C185.099 355.303 186.204 355.192 187.308 355.038C203.726 353.071 218.795 349.801 226.087 345.625C202.422 343.592 180.348 310.779 182.536 286.186C184.436 264.996 201.759 248.027 222.949 246.568C238.571 245.463 252.558 252.6 261.109 264.046C261.463 264.51 261.794 265.018 262.17 265.504C263.562 267.559 264.799 269.725 265.816 272.001C266.611 273.658 267.274 275.381 267.804 277.171C266.346 270.962 265.374 264.599 265.042 258.036C264.91 256.069 264.865 254.059 264.865 252.07V251.385C264.865 249.595 264.932 247.828 265.042 246.082C265.639 235.034 267.893 224.494 271.538 214.595H271.119C270.456 214.595 269.793 214.595 269.13 214.551C268.467 214.551 267.826 214.507 267.163 214.485C266.766 214.463 266.324 214.418 265.904 214.396C265.263 214.33 264.6 214.286 263.982 214.22C263.297 214.153 262.634 214.043 261.927 213.954C261.153 213.866 260.424 213.733 259.695 213.601C259.165 213.49 258.634 213.402 258.104 213.292C257.927 213.247 257.706 213.181 257.552 213.159C257.309 213.115 257.088 213.049 256.889 213.026C256.358 212.916 255.828 212.805 255.32 212.673C254.591 212.474 253.862 212.297 253.177 212.076C252.646 211.944 252.116 211.789 251.586 211.612C250.68 211.325 249.752 211.016 248.868 210.684C248.249 210.463 247.586 210.198 246.923 209.911C246.216 209.646 245.553 209.358 244.891 209.049C244.36 208.85 243.83 208.585 243.322 208.364C242.526 208.011 241.731 207.591 240.958 207.171C240.361 206.884 239.72 206.53 239.168 206.199C239.124 206.177 239.057 206.132 239.035 206.11C237.776 205.403 236.516 204.652 235.323 203.812C234.66 203.37 233.953 202.906 233.334 202.42C232.671 201.956 232.009 201.492 231.39 200.962C230.815 200.52 230.263 200.1 229.689 199.636C229.158 199.194 228.628 198.73 228.12 198.266C227.7 197.913 227.258 197.493 226.86 197.095C226.396 196.653 225.888 196.233 225.468 195.769C225.004 195.35 224.54 194.841 224.12 194.377C223.568 193.803 223.038 193.206 222.529 192.654C221.999 192.035 221.469 191.394 220.938 190.798C220.541 190.312 220.187 189.803 219.79 189.339C219.392 188.809 218.95 188.235 218.596 187.682C218.154 187.108 217.757 186.577 217.403 185.981C217.138 185.627 216.873 185.208 216.63 184.81C216.586 184.743 216.563 184.699 216.519 184.677C216.055 183.904 215.569 183.175 215.127 182.379C214.663 181.584 214.199 180.744 213.779 179.927C213.868 178.976 214 178.048 214.177 177.076C214.221 176.833 214.243 176.612 214.31 176.369C214.42 175.706 214.553 175.043 214.685 174.403C214.752 174.137 214.818 173.828 214.884 173.563C214.884 173.519 214.884 173.519 214.928 173.497C215.039 172.878 215.194 172.303 215.37 171.663C215.414 171.596 215.414 171.508 215.437 171.397C215.481 171.199 215.547 170.956 215.613 170.757C215.768 170.138 215.945 169.497 216.166 168.879C216.232 168.658 216.276 168.437 216.343 168.216C216.519 167.796 216.63 167.354 216.807 166.934C217.005 166.315 217.226 165.675 217.469 165.078C217.712 164.459 217.933 163.841 218.176 163.244C218.464 162.515 218.773 161.852 219.105 161.167C219.105 161.123 219.149 161.057 219.171 161.034C219.171 160.99 219.171 160.968 219.215 160.968C219.458 160.416 219.723 159.841 220.01 159.311C220.121 159.09 220.209 158.869 220.32 158.648C220.585 158.074 220.916 157.477 221.248 156.925C221.977 155.555 222.728 154.273 223.568 152.969C223.833 152.572 224.054 152.196 224.341 151.798C224.385 151.732 224.452 151.622 224.518 151.577C224.717 151.29 224.872 151.003 225.07 150.738C225.402 150.274 225.733 149.81 226.065 149.346C226.131 149.279 226.197 149.147 226.264 149.08C226.308 149.036 226.33 149.014 226.33 148.97C226.75 148.44 227.192 147.887 227.589 147.335C228.031 146.76 228.495 146.208 229.004 145.634C229.202 145.346 229.468 145.037 229.777 144.772C229.777 144.728 229.821 144.705 229.843 144.683C230.086 144.44 230.307 144.219 230.528 143.954C230.904 143.556 231.257 143.115 231.699 142.717C231.964 142.452 232.23 142.164 232.451 141.921L232.627 141.745C232.87 141.524 233.135 141.258 233.401 141.015C233.644 140.794 233.909 140.551 234.152 140.286C234.218 140.22 234.329 140.154 234.395 140.087C234.815 139.69 235.301 139.292 235.743 138.894C235.875 138.762 236.008 138.629 236.141 138.519C237.069 137.723 238.041 136.95 238.991 136.243C239.565 135.801 240.118 135.381 240.692 134.983C240.737 134.983 240.759 134.939 240.803 134.917C241.267 134.63 241.731 134.276 242.195 133.945C242.659 133.657 243.145 133.326 243.609 133.017C244.073 132.752 244.537 132.442 244.957 132.177C245.487 131.868 246.017 131.536 246.548 131.249C247.056 130.984 247.586 130.675 248.072 130.454C248.912 129.99 249.774 129.548 250.658 129.128C251.365 128.841 252.05 128.531 252.757 128.2C253.044 128.111 253.353 127.979 253.663 127.846C253.95 127.736 254.259 127.603 254.569 127.493C254.79 127.426 255.033 127.316 255.254 127.228C255.85 127.029 256.469 126.786 257.065 126.587C257.441 126.432 257.795 126.322 258.17 126.233C258.413 126.123 258.679 126.056 258.899 125.99C259.496 125.791 260.468 125.526 261.065 125.371C261.529 125.239 261.993 125.106 262.457 125.018C263.694 124.731 264.91 124.421 266.169 124.178C266.832 124.068 267.495 123.957 268.158 123.847C268.423 123.803 268.732 123.736 268.997 123.714C269.528 123.648 269.992 123.582 270.478 123.537C270.743 123.493 271.008 123.471 271.273 123.427C271.804 123.361 272.29 123.339 272.82 123.272H273.019C273.196 123.272 273.35 123.228 273.527 123.228C274.256 123.162 274.941 123.14 275.67 123.14C276.51 123.096 277.305 123.073 278.123 123.073C288.641 123.073 298.54 125.57 307.29 130.034C283.537 114.964 255.872 105.33 226.175 103.209ZM171.355 169.475C163.069 169.475 156.374 162.78 156.374 154.516C156.374 146.252 163.069 139.557 171.355 139.557C179.619 139.557 186.314 146.252 186.314 154.516C186.314 162.78 179.619 169.475 171.355 169.475Z" fill="#272B64" stroke="#272B64" stroke-width="8.83841" stroke-miterlimit="10"/>
<path d="M265.195 251.43V252.093C265.195 254.082 265.129 256.114 265.018 258.059C264.886 256.092 264.841 254.082 264.841 252.093V251.408C264.841 249.618 264.908 247.851 265.018 246.105C265.084 246.967 265.129 247.873 265.129 248.757C265.173 249.287 265.173 249.861 265.173 250.414V250.524C265.195 250.789 265.195 251.121 265.195 251.43Z" stroke="#272B64" stroke-width="8.83841" stroke-miterlimit="10"/>
<path d="M47.3519 261.392C47.0867 260.287 46.8215 259.16 46.5785 258.033" stroke="#272B64" stroke-width="8.83841" stroke-miterlimit="10"/>
<path d="M187.309 355.038C203.727 353.071 218.796 349.801 226.088 345.625C202.423 343.592 180.349 310.779 182.537 286.187C184.437 264.996 201.76 248.027 222.95 246.568C238.572 245.464 252.559 252.601 261.11 264.046C261.464 264.51 261.795 265.019 262.171 265.505C263.563 267.56 264.8 269.725 265.816 272.001C271.053 304.526 290.188 319.64 290.188 319.64C280.643 328.324 236.164 349.691 187.309 355.038Z" fill="#D9DBF7" stroke="#272B64" stroke-width="8.83841" stroke-miterlimit="10"/>
<path d="M265.791 272.003C264.134 261.883 263.869 250.062 265.924 236.495" stroke="#272B64" stroke-width="8.83841" stroke-miterlimit="10"/>
<path d="M187.305 355.034C186.201 355.211 185.118 355.299 184.013 355.41" stroke="#272B64" stroke-width="8.83841" stroke-miterlimit="10"/>
<path d="M186.311 154.536C186.311 162.8 179.616 169.495 171.352 169.495C163.066 169.495 156.371 162.8 156.371 154.536C156.371 146.272 163.066 139.577 171.352 139.577C179.616 139.577 186.311 146.272 186.311 154.536Z" fill="#FF6000"/>
<path d="M214.353 182.731C214.353 182.731 280.641 139.644 330.357 152.902C293.899 179.417 267.384 215.876 267.384 215.876C267.384 215.876 230.925 225.819 214.353 182.731Z" fill="#272B64"/>
</g>
</svg>
